<svg xmlns="http://www.w3.org/2000/svg" xmlns:xlink="http://www.w3.org/1999/xlink" contentStyleType="text/css" height="312px" preserveAspectRatio="none" style="width:586px;height:312px;background:#FFFFFF;" version="1.1" viewBox="0 0 586 312" width="586px" zoomAndPan="magnify"><defs/><g><!--class PizzaFactory--><g id="elem_PizzaFactory"><rect codeLine="1" fill="#F1F1F1" height="48" id="PizzaFactory" rx="2.5" ry="2.5" style="stroke:#181818;stroke-width:0.5;" width="120.0332" x="204" y="132"/><ellipse cx="219" cy="148" fill="#B4A7E5" rx="11" ry="11" style="stroke:#181818;stroke-width:1.0;"/><path d="M214.9219,143.7656 L214.9219,141.6094 L222.3125,141.6094 L222.3125,143.7656 L219.8438,143.7656 L219.8438,151.8438 L222.3125,151.8438 L222.3125,154 L214.9219,154 L214.9219,151.8438 L217.3906,151.8438 L217.3906,143.7656 L214.9219,143.7656 Z " fill="#000000"/><text fill="#000000" font-family="sans-serif" font-size="14" font-style="italic" lengthAdjust="spacing" textLength="88.0332" x="233" y="152.8467">PizzaFactory</text><line style="stroke:#181818;stroke-width:0.5;" x1="205" x2="323.0332" y1="164" y2="164"/><line style="stroke:#181818;stroke-width:0.5;" x1="205" x2="323.0332" y1="172" y2="172"/></g><!--class Client--><g id="elem_Client"><rect codeLine="9" fill="#F1F1F1" height="48" id="Client" rx="2.5" ry="2.5" style="stroke:#181818;stroke-width:0.5;" width="72.5303" x="227.5" y="7"/><ellipse cx="242.5" cy="23" fill="#ADD1B2" rx="11" ry="11" style="stroke:#181818;stroke-width:1.0;"/><path d="M245.4688,28.6406 Q244.8906,28.9375 244.25,29.0781 Q243.6094,29.2344 242.9063,29.2344 Q240.4063,29.2344 239.0781,27.5938 Q237.7656,25.9375 237.7656,22.8125 Q237.7656,19.6875 239.0781,18.0313 Q240.4063,16.375 242.9063,16.375 Q243.6094,16.375 244.25,16.5313 Q244.9063,16.6875 245.4688,16.9844 L245.4688,19.7031 Q244.8438,19.125 244.25,18.8594 Q243.6563,18.5781 243.0313,18.5781 Q241.6875,18.5781 241,19.6563 Q240.3125,20.7188 240.3125,22.8125 Q240.3125,24.9063 241,25.9844 Q241.6875,27.0469 243.0313,27.0469 Q243.6563,27.0469 244.25,26.7813 Q244.8438,26.5 245.4688,25.9219 L245.4688,28.6406 Z " fill="#000000"/><text fill="#000000" font-family="sans-serif" font-size="14" lengthAdjust="spacing" textLength="40.5303" x="256.5" y="27.8467">Client</text><line style="stroke:#181818;stroke-width:0.5;" x1="228.5" x2="299.0303" y1="39" y2="39"/><line style="stroke:#181818;stroke-width:0.5;" x1="228.5" x2="299.0303" y1="47" y2="47"/></g><!--class Pizza--><g id="elem_Pizza"><rect codeLine="12" fill="#F1F1F1" height="48" id="Pizza" rx="2.5" ry="2.5" style="stroke:#181818;stroke-width:0.5;" width="67.6084" x="7" y="257"/><ellipse cx="22" cy="273" fill="#ADD1B2" rx="11" ry="11" style="stroke:#181818;stroke-width:1.0;"/><path d="M24.9688,278.6406 Q24.3906,278.9375 23.75,279.0781 Q23.1094,279.2344 22.4063,279.2344 Q19.9063,279.2344 18.5781,277.5938 Q17.2656,275.9375 17.2656,272.8125 Q17.2656,269.6875 18.5781,268.0313 Q19.9063,266.375 22.4063,266.375 Q23.1094,266.375 23.75,266.5313 Q24.4063,266.6875 24.9688,266.9844 L24.9688,269.7031 Q24.3438,269.125 23.75,268.8594 Q23.1563,268.5781 22.5313,268.5781 Q21.1875,268.5781 20.5,269.6563 Q19.8125,270.7188 19.8125,272.8125 Q19.8125,274.9063 20.5,275.9844 Q21.1875,277.0469 22.5313,277.0469 Q23.1563,277.0469 23.75,276.7813 Q24.3438,276.5 24.9688,275.9219 L24.9688,278.6406 Z " fill="#000000"/><text fill="#000000" font-family="sans-serif" font-size="14" lengthAdjust="spacing" textLength="35.6084" x="36" y="277.8467">Pizza</text><line style="stroke:#181818;stroke-width:0.5;" x1="8" x2="73.6084" y1="289" y2="289"/><line style="stroke:#181818;stroke-width:0.5;" x1="8" x2="73.6084" y1="297" y2="297"/></g><!--class PizzaMargarita--><g id="elem_PizzaMargarita"><rect codeLine="15" fill="#F1F1F1" height="48" id="PizzaMargarita" rx="2.5" ry="2.5" style="stroke:#181818;stroke-width:0.5;" width="135.2021" x="110.5" y="257"/><ellipse cx="125.5" cy="273" fill="#ADD1B2" rx="11" ry="11" style="stroke:#181818;stroke-width:1.0;"/><path d="M128.4688,278.6406 Q127.8906,278.9375 127.25,279.0781 Q126.6094,279.2344 125.9063,279.2344 Q123.4063,279.2344 122.0781,277.5938 Q120.7656,275.9375 120.7656,272.8125 Q120.7656,269.6875 122.0781,268.0313 Q123.4063,266.375 125.9063,266.375 Q126.6094,266.375 127.25,266.5313 Q127.9063,266.6875 128.4688,266.9844 L128.4688,269.7031 Q127.8438,269.125 127.25,268.8594 Q126.6563,268.5781 126.0313,268.5781 Q124.6875,268.5781 124,269.6563 Q123.3125,270.7188 123.3125,272.8125 Q123.3125,274.9063 124,275.9844 Q124.6875,277.0469 126.0313,277.0469 Q126.6563,277.0469 127.25,276.7813 Q127.8438,276.5 128.4688,275.9219 L128.4688,278.6406 Z " fill="#000000"/><text fill="#000000" font-family="sans-serif" font-size="14" lengthAdjust="spacing" textLength="103.2021" x="139.5" y="277.8467">PizzaMargarita</text><line style="stroke:#181818;stroke-width:0.5;" x1="111.5" x2="244.7021" y1="289" y2="289"/><line style="stroke:#181818;stroke-width:0.5;" x1="111.5" x2="244.7021" y1="297" y2="297"/></g><!--class PizzaCarbonara--><g id="elem_PizzaCarbonara"><rect codeLine="16" fill="#F1F1F1" height="48" id="PizzaCarbonara" rx="2.5" ry="2.5" style="stroke:#181818;stroke-width:0.5;" width="140.958" x="280.5" y="257"/><ellipse cx="295.5" cy="273" fill="#ADD1B2" rx="11" ry="11" style="stroke:#181818;stroke-width:1.0;"/><path d="M298.4688,278.6406 Q297.8906,278.9375 297.25,279.0781 Q296.6094,279.2344 295.9063,279.2344 Q293.4063,279.2344 292.0781,277.5938 Q290.7656,275.9375 290.7656,272.8125 Q290.7656,269.6875 292.0781,268.0313 Q293.4063,266.375 295.9063,266.375 Q296.6094,266.375 297.25,266.5313 Q297.9063,266.6875 298.4688,266.9844 L298.4688,269.7031 Q297.8438,269.125 297.25,268.8594 Q296.6563,268.5781 296.0313,268.5781 Q294.6875,268.5781 294,269.6563 Q293.3125,270.7188 293.3125,272.8125 Q293.3125,274.9063 294,275.9844 Q294.6875,277.0469 296.0313,277.0469 Q296.6563,277.0469 297.25,276.7813 Q297.8438,276.5 298.4688,275.9219 L298.4688,278.6406 Z " fill="#000000"/><text fill="#000000" font-family="sans-serif" font-size="14" lengthAdjust="spacing" textLength="108.958" x="309.5" y="277.8467">PizzaCarbonara</text><line style="stroke:#181818;stroke-width:0.5;" x1="281.5" x2="420.458" y1="289" y2="289"/><line style="stroke:#181818;stroke-width:0.5;" x1="281.5" x2="420.458" y1="297" y2="297"/></g><!--class PizzaHunters--><g id="elem_PizzaHunters"><rect codeLine="17" fill="#F1F1F1" height="48" id="PizzaHunters" rx="2.5" ry="2.5" style="stroke:#181818;stroke-width:0.5;" width="123.0342" x="456.5" y="257"/><ellipse cx="471.5" cy="273" fill="#ADD1B2" rx="11" ry="11" style="stroke:#181818;stroke-width:1.0;"/><path d="M474.4688,278.6406 Q473.8906,278.9375 473.25,279.0781 Q472.6094,279.2344 471.9063,279.2344 Q469.4063,279.2344 468.0781,277.5938 Q466.7656,275.9375 466.7656,272.8125 Q466.7656,269.6875 468.0781,268.0313 Q469.4063,266.375 471.9063,266.375 Q472.6094,266.375 473.25,266.5313 Q473.9063,266.6875 474.4688,266.9844 L474.4688,269.7031 Q473.8438,269.125 473.25,268.8594 Q472.6563,268.5781 472.0313,268.5781 Q470.6875,268.5781 470,269.6563 Q469.3125,270.7188 469.3125,272.8125 Q469.3125,274.9063 470,275.9844 Q470.6875,277.0469 472.0313,277.0469 Q472.6563,277.0469 473.25,276.7813 Q473.8438,276.5 474.4688,275.9219 L474.4688,278.6406 Z " fill="#000000"/><text fill="#000000" font-family="sans-serif" font-size="14" lengthAdjust="spacing" textLength="91.0342" x="485.5" y="277.8467">PizzaHunters</text><line style="stroke:#181818;stroke-width:0.5;" x1="457.5" x2="578.5342" y1="289" y2="289"/><line style="stroke:#181818;stroke-width:0.5;" x1="457.5" x2="578.5342" y1="297" y2="297"/></g><!--link Client to PizzaFactory--><g id="link_Client_PizzaFactory"><path codeLine="3" d="M264,55.14 C264,77.13 264,104.01 264,125.97 " fill="none" id="Client-to-PizzaFactory" style="stroke:#181818;stroke-width:1.0;"/><polygon fill="#181818" points="264,131.97,268,122.97,264,126.97,260,122.97,264,131.97" style="stroke:#181818;stroke-width:1.0;"/><text fill="#000000" font-family="sans-serif" font-size="13" lengthAdjust="spacing" textLength="93.7803" x="265" y="98.0669">&#1074;&#1080;&#1082;&#1086;&#1088;&#1080;&#1089;&#1090;&#1086;&#1074;&#1091;&#1108;</text></g><!--reverse link PizzaFactory to Pizza--><g id="link_PizzaFactory_Pizza"><path codeLine="4" d="M194.0895,187.5319 C174.7495,196.3419 169.31,199.37 150,210 C123.99,224.31 95.82,242.47 74.64,256.71 " fill="none" id="PizzaFactory-backto-Pizza" style="stroke:#181818;stroke-width:1.0;stroke-dasharray:7.0,7.0;"/><polygon fill="none" points="210.47,180.07,191.6022,182.0717,196.5768,192.992,210.47,180.07" style="stroke:#181818;stroke-width:1.0;"/><text fill="#000000" font-family="sans-serif" font-size="13" lengthAdjust="spacing" textLength="56.6655" x="151" y="223.0669">&#1089;&#1090;&#1074;&#1086;&#1088;&#1102;&#1108;</text></g><!--reverse link PizzaFactory to PizzaMargarita--><g id="link_PizzaFactory_PizzaMargarita"><path codeLine="5" d="M237.508,194.8934 C222.138,216.8834 209.45,235.01 194.1,256.97 " fill="none" id="PizzaFactory-backto-PizzaMargarita" style="stroke:#181818;stroke-width:1.0;stroke-dasharray:7.0,7.0;"/><polygon fill="none" points="247.82,180.14,232.5902,191.4561,242.4258,198.3307,247.82,180.14" style="stroke:#181818;stroke-width:1.0;"/></g><!--reverse link PizzaFactory to PizzaCarbonara--><g id="link_PizzaFactory_PizzaCarbonara"><path codeLine="6" d="M290.7571,194.8336 C306.3171,216.8236 319.18,235.01 334.71,256.97 " fill="none" id="PizzaFactory-backto-PizzaCarbonara" style="stroke:#181818;stroke-width:1.0;stroke-dasharray:7.0,7.0;"/><polygon fill="none" points="280.36,180.14,285.8592,198.2993,295.6549,191.3679,280.36,180.14" style="stroke:#181818;stroke-width:1.0;"/></g><!--reverse link PizzaFactory to PizzaHunters--><g id="link_PizzaFactory_PizzaHunters"><path codeLine="7" d="M327.9804,187.9851 C373.3904,209.9751 425.1,235.01 470.44,256.97 " fill="none" id="PizzaFactory-backto-PizzaHunters" style="stroke:#181818;stroke-width:1.0;stroke-dasharray:7.0,7.0;"/><polygon fill="none" points="311.78,180.14,325.3654,193.3853,330.5955,182.585,311.78,180.14" style="stroke:#181818;stroke-width:1.0;"/></g><!--SRC=[oymhIIrAIqnELGZ8hAfAT4jCBialgkJYSix9JCqhKT3LjKEHKB1IkB3fmeuBkoxikzXmOSV5nejD5_PTs7In-U8KBXHrDZLwUX2TG2rAO7MRG7ekzbsSeeHBgMzYKNfYKMP98Yu5peb5IVbvYKKu5NYKWlnJpCMLd9DONAm0zKKrLorC1E8aT064nKY22CkG1A4M0000]--></g></svg>