<svg xmlns="http://www.w3.org/2000/svg" xmlns:xlink="http://www.w3.org/1999/xlink" contentStyleType="text/css" height="276px" preserveAspectRatio="none" style="width:781px;height:276px;background:#FFFFFF;" version="1.1" viewBox="0 0 781 276" width="781px" zoomAndPan="magnify"><defs/><g><!--class Pizza--><g id="elem_Pizza"><rect codeLine="3" fill="#F1F1F1" height="80.5938" id="Pizza" rx="2.5" ry="2.5" style="stroke:#181818;stroke-width:0.5;" width="142.375" x="429" y="97.5"/><ellipse cx="478.1333" cy="113.5" fill="#ADD1B2" rx="11" ry="11" style="stroke:#181818;stroke-width:1.0;"/><path d="M481.1021,119.1406 Q480.5239,119.4375 479.8833,119.5781 Q479.2427,119.7344 478.5396,119.7344 Q476.0396,119.7344 474.7114,118.0938 Q473.3989,116.4375 473.3989,113.3125 Q473.3989,110.1875 474.7114,108.5313 Q476.0396,106.875 478.5396,106.875 Q479.2427,106.875 479.8833,107.0313 Q480.5396,107.1875 481.1021,107.4844 L481.1021,110.2031 Q480.4771,109.625 479.8833,109.3594 Q479.2896,109.0781 478.6646,109.0781 Q477.3208,109.0781 476.6333,110.1563 Q475.9458,111.2188 475.9458,113.3125 Q475.9458,115.4063 476.6333,116.4844 Q477.3208,117.5469 478.6646,117.5469 Q479.2896,117.5469 479.8833,117.2813 Q480.4771,117 481.1021,116.4219 L481.1021,119.1406 Z " fill="#000000"/><text fill="#000000" font-family="sans-serif" font-size="14" lengthAdjust="spacing" textLength="35.6084" x="498.6333" y="118.3467">Pizza</text><line style="stroke:#181818;stroke-width:0.5;" x1="430" x2="570.375" y1="129.5" y2="129.5"/><rect fill="none" height="6" style="stroke:#C82930;stroke-width:1.0;" width="6" x="437" y="140.1484"/><text fill="#000000" font-family="sans-serif" font-size="14" lengthAdjust="spacing" textLength="75.4619" x="449" y="146.4951">price: float</text><line style="stroke:#181818;stroke-width:0.5;" x1="430" x2="570.375" y1="153.7969" y2="153.7969"/><ellipse cx="440" cy="167.4453" fill="#84BE84" rx="3" ry="3" style="stroke:#038048;stroke-width:1.0;"/><text fill="#000000" font-family="sans-serif" font-size="14" lengthAdjust="spacing" textLength="116.375" x="449" y="170.792">get_price(): float</text></g><!--class PizzaType--><g id="elem_PizzaType"><rect codeLine="8" fill="#F1F1F1" height="96.8906" id="PizzaType" rx="2.5" ry="2.5" style="stroke:#181818;stroke-width:0.5;" width="101.9453" x="7" y="89.5"/><ellipse cx="22" cy="105.5" fill="#EB937F" rx="11" ry="11" style="stroke:#181818;stroke-width:1.0;"/><path d="M26.1094,111.5 L18.3906,111.5 L18.3906,99.1094 L26.1094,99.1094 L26.1094,101.2656 L20.8438,101.2656 L20.8438,103.9375 L25.6094,103.9375 L25.6094,106.0938 L20.8438,106.0938 L20.8438,109.3438 L26.1094,109.3438 L26.1094,111.5 Z " fill="#000000"/><text fill="#000000" font-family="sans-serif" font-size="14" lengthAdjust="spacing" textLength="69.9453" x="36" y="110.3467">PizzaType</text><line style="stroke:#181818;stroke-width:0.5;" x1="8" x2="107.9453" y1="121.5" y2="121.5"/><text fill="#000000" font-family="sans-serif" font-size="14" lengthAdjust="spacing" textLength="83.7949" x="13" y="138.4951">MARGARITA</text><text fill="#000000" font-family="sans-serif" font-size="14" lengthAdjust="spacing" textLength="89.0586" x="13" y="154.792">CARBONARA</text><text fill="#000000" font-family="sans-serif" font-size="14" lengthAdjust="spacing" textLength="67.2588" x="13" y="171.0889">HUNTERS</text><line style="stroke:#181818;stroke-width:0.5;" x1="8" x2="107.9453" y1="178.3906" y2="178.3906"/></g><!--class PizzaMargarita--><g id="elem_PizzaMargarita"><rect codeLine="14" fill="#F1F1F1" height="64.2969" id="PizzaMargarita" rx="2.5" ry="2.5" style="stroke:#181818;stroke-width:0.5;" width="142.375" x="632" y="7"/><ellipse cx="650.2278" cy="23" fill="#ADD1B2" rx="11" ry="11" style="stroke:#181818;stroke-width:1.0;"/><path d="M653.1965,28.6406 Q652.6184,28.9375 651.9778,29.0781 Q651.3372,29.2344 650.634,29.2344 Q648.134,29.2344 646.8059,27.5938 Q645.4934,25.9375 645.4934,22.8125 Q645.4934,19.6875 646.8059,18.0313 Q648.134,16.375 650.634,16.375 Q651.3372,16.375 651.9778,16.5313 Q652.634,16.6875 653.1965,16.9844 L653.1965,19.7031 Q652.5715,19.125 651.9778,18.8594 Q651.384,18.5781 650.759,18.5781 Q649.4153,18.5781 648.7278,19.6563 Q648.0403,20.7188 648.0403,22.8125 Q648.0403,24.9063 648.7278,25.9844 Q649.4153,27.0469 650.759,27.0469 Q651.384,27.0469 651.9778,26.7813 Q652.5715,26.5 653.1965,25.9219 L653.1965,28.6406 Z " fill="#000000"/><text fill="#000000" font-family="sans-serif" font-size="14" lengthAdjust="spacing" textLength="103.2021" x="664.9451" y="27.8467">PizzaMargarita</text><line style="stroke:#181818;stroke-width:0.5;" x1="633" x2="773.375" y1="39" y2="39"/><line style="stroke:#181818;stroke-width:0.5;" x1="633" x2="773.375" y1="47" y2="47"/><ellipse cx="643" cy="60.6484" fill="#84BE84" rx="3" ry="3" style="stroke:#038048;stroke-width:1.0;"/><text fill="#000000" font-family="sans-serif" font-size="14" lengthAdjust="spacing" textLength="116.375" x="652" y="63.9951">get_price(): float</text></g><!--class PizzaCarbonara--><g id="elem_PizzaCarbonara"><rect codeLine="18" fill="#F1F1F1" height="64.2969" id="PizzaCarbonara" rx="2.5" ry="2.5" style="stroke:#181818;stroke-width:0.5;" width="142.375" x="632" y="106"/><ellipse cx="647.6376" cy="122" fill="#ADD1B2" rx="11" ry="11" style="stroke:#181818;stroke-width:1.0;"/><path d="M650.6064,127.6406 Q650.0283,127.9375 649.3876,128.0781 Q648.747,128.2344 648.0439,128.2344 Q645.5439,128.2344 644.2158,126.5938 Q642.9033,124.9375 642.9033,121.8125 Q642.9033,118.6875 644.2158,117.0313 Q645.5439,115.375 648.0439,115.375 Q648.747,115.375 649.3876,115.5313 Q650.0439,115.6875 650.6064,115.9844 L650.6064,118.7031 Q649.9814,118.125 649.3876,117.8594 Q648.7939,117.5781 648.1689,117.5781 Q646.8251,117.5781 646.1376,118.6563 Q645.4501,119.7188 645.4501,121.8125 Q645.4501,123.9063 646.1376,124.9844 Q646.8251,126.0469 648.1689,126.0469 Q648.7939,126.0469 649.3876,125.7813 Q649.9814,125.5 650.6064,124.9219 L650.6064,127.6406 Z " fill="#000000"/><text fill="#000000" font-family="sans-serif" font-size="14" lengthAdjust="spacing" textLength="108.958" x="661.7793" y="126.8467">PizzaCarbonara</text><line style="stroke:#181818;stroke-width:0.5;" x1="633" x2="773.375" y1="138" y2="138"/><line style="stroke:#181818;stroke-width:0.5;" x1="633" x2="773.375" y1="146" y2="146"/><ellipse cx="643" cy="159.6484" fill="#84BE84" rx="3" ry="3" style="stroke:#038048;stroke-width:1.0;"/><text fill="#000000" font-family="sans-serif" font-size="14" lengthAdjust="spacing" textLength="116.375" x="652" y="162.9951">get_price(): float</text></g><!--class PizzaHunters--><g id="elem_PizzaHunters"><rect codeLine="22" fill="#F1F1F1" height="64.2969" id="PizzaHunters" rx="2.5" ry="2.5" style="stroke:#181818;stroke-width:0.5;" width="142.375" x="632" y="205"/><ellipse cx="655.7034" cy="221" fill="#ADD1B2" rx="11" ry="11" style="stroke:#181818;stroke-width:1.0;"/><path d="M658.6721,226.6406 Q658.094,226.9375 657.4534,227.0781 Q656.8127,227.2344 656.1096,227.2344 Q653.6096,227.2344 652.2815,225.5938 Q650.969,223.9375 650.969,220.8125 Q650.969,217.6875 652.2815,216.0313 Q653.6096,214.375 656.1096,214.375 Q656.8127,214.375 657.4534,214.5313 Q658.1096,214.6875 658.6721,214.9844 L658.6721,217.7031 Q658.0471,217.125 657.4534,216.8594 Q656.8596,216.5781 656.2346,216.5781 Q654.8909,216.5781 654.2034,217.6563 Q653.5159,218.7188 653.5159,220.8125 Q653.5159,222.9063 654.2034,223.9844 Q654.8909,225.0469 656.2346,225.0469 Q656.8596,225.0469 657.4534,224.7813 Q658.0471,224.5 658.6721,223.9219 L658.6721,226.6406 Z " fill="#000000"/><text fill="#000000" font-family="sans-serif" font-size="14" lengthAdjust="spacing" textLength="91.0342" x="671.6375" y="225.8467">PizzaHunters</text><line style="stroke:#181818;stroke-width:0.5;" x1="633" x2="773.375" y1="237" y2="237"/><line style="stroke:#181818;stroke-width:0.5;" x1="633" x2="773.375" y1="245" y2="245"/><ellipse cx="643" cy="258.6484" fill="#84BE84" rx="3" ry="3" style="stroke:#038048;stroke-width:1.0;"/><text fill="#000000" font-family="sans-serif" font-size="14" lengthAdjust="spacing" textLength="116.375" x="652" y="261.9951">get_price(): float</text></g><!--class create_pizza--><g id="elem_create_pizza"><rect fill="#F1F1F1" height="48" id="create_pizza" rx="2.5" ry="2.5" style="stroke:#181818;stroke-width:0.5;" width="119.8008" x="200" y="114"/><ellipse cx="215" cy="130" fill="#ADD1B2" rx="11" ry="11" style="stroke:#181818;stroke-width:1.0;"/><path d="M217.9688,135.6406 Q217.3906,135.9375 216.75,136.0781 Q216.1094,136.2344 215.4063,136.2344 Q212.9063,136.2344 211.5781,134.5938 Q210.2656,132.9375 210.2656,129.8125 Q210.2656,126.6875 211.5781,125.0313 Q212.9063,123.375 215.4063,123.375 Q216.1094,123.375 216.75,123.5313 Q217.4063,123.6875 217.9688,123.9844 L217.9688,126.7031 Q217.3438,126.125 216.75,125.8594 Q216.1563,125.5781 215.5313,125.5781 Q214.1875,125.5781 213.5,126.6563 Q212.8125,127.7188 212.8125,129.8125 Q212.8125,131.9063 213.5,132.9844 Q214.1875,134.0469 215.5313,134.0469 Q216.1563,134.0469 216.75,133.7813 Q217.3438,133.5 217.9688,132.9219 L217.9688,135.6406 Z " fill="#000000"/><text fill="#000000" font-family="sans-serif" font-size="14" lengthAdjust="spacing" textLength="87.8008" x="229" y="134.8467">create_pizza</text><line style="stroke:#181818;stroke-width:0.5;" x1="201" x2="318.8008" y1="146" y2="146"/><line style="stroke:#181818;stroke-width:0.5;" x1="201" x2="318.8008" y1="154" y2="154"/></g><!--reverse link Pizza to PizzaMargarita--><g id="link_Pizza_PizzaMargarita"><path codeLine="26" d="M587.1692,95.5599 C608.5792,85.0199 615.88,81.42 636.95,71.04 " fill="none" id="Pizza-backto-PizzaMargarita" style="stroke:#181818;stroke-width:1.0;"/><polygon fill="none" points="571.02,103.51,589.8192,100.9429,584.5191,90.1768,571.02,103.51" style="stroke:#181818;stroke-width:1.0;"/></g><!--reverse link Pizza to PizzaCarbonara--><g id="link_Pizza_PizzaCarbonara"><path codeLine="27" d="M589.02,138 C608.73,138 612.17,138 631.89,138 " fill="none" id="Pizza-backto-PizzaCarbonara" style="stroke:#181818;stroke-width:1.0;"/><polygon fill="none" points="571.02,138,589.02,144,589.02,132,571.02,138" style="stroke:#181818;stroke-width:1.0;"/></g><!--reverse link Pizza to PizzaHunters--><g id="link_Pizza_PizzaHunters"><path codeLine="28" d="M587.1692,180.4401 C608.5792,190.9801 615.88,194.58 636.95,204.96 " fill="none" id="Pizza-backto-PizzaHunters" style="stroke:#181818;stroke-width:1.0;"/><polygon fill="none" points="571.02,172.49,584.5191,185.8232,589.8192,175.0571,571.02,172.49" style="stroke:#181818;stroke-width:1.0;"/></g><!--link PizzaType to create_pizza--><g id="link_PizzaType_create_pizza"><path codeLine="30" d="M109.21,138 C136.75,138 165.05,138 193.88,138 " fill="none" id="PizzaType-to-create_pizza" style="stroke:#181818;stroke-width:1.0;stroke-dasharray:7.0,7.0;"/><polygon fill="#181818" points="199.88,138,190.88,134,194.88,138,190.88,142,199.88,138" style="stroke:#181818;stroke-width:1.0;"/><text fill="#000000" font-family="sans-serif" font-size="13" lengthAdjust="spacing" textLength="29.7832" x="140" y="134.0669">uses</text></g><!--link create_pizza to Pizza--><g id="link_create_pizza_Pizza"><path codeLine="31" d="M320.14,138 C353.04,138 388.2,138 422.74,138 " fill="none" id="create_pizza-to-Pizza" style="stroke:#181818;stroke-width:1.0;"/><polygon fill="#181818" points="428.74,138,419.74,134,423.74,138,419.74,142,428.74,138" style="stroke:#181818;stroke-width:1.0;"/><text fill="#000000" font-family="sans-serif" font-size="13" lengthAdjust="spacing" textLength="47.0361" x="351" y="134.0669">returns</text></g><!--SRC=[bP7DRi8m48JlVeez5Y7p016Av2BKSE179ZqZ4vPWAJZHUdCWq7TlwmJ4Zn32jvtnvncj2zmoS0baynt3nX9cR4idH5OOxs5XcyR0KS3VaL2HpJ22RL4Q3b8VSkHLa3zwP-D727JrlcNJGuKTFrNwI-b9gi8qKlfpFbEwdPBlMJhMot_sAdXgA3Ta-TpWMTmLCZAqBfsXDv2aTepaNm3j9eOdAU-wFJYN2WzEbzGz5bOp6CIG4Hh6LHLkHr1xzE96apBkVY82Ggx9-Ly0]--></g></svg>